<?xml version="1.0" encoding="UTF-8" standalone="no"?>
<!-- Created with Inkscape (http://www.inkscape.org/) -->

<svg
   xmlns:dc="http://purl.org/dc/elements/1.1/"
   xmlns:cc="http://creativecommons.org/ns#"
   xmlns:rdf="http://www.w3.org/1999/02/22-rdf-syntax-ns#"
   xmlns:svg="http://www.w3.org/2000/svg"
   xmlns="http://www.w3.org/2000/svg"
   xmlns:sodipodi="http://sodipodi.sourceforge.net/DTD/sodipodi-0.dtd"
   xmlns:inkscape="http://www.inkscape.org/namespaces/inkscape"
   width="127.25415mm"
   height="127.25415mm"
   viewBox="0 0 127.25415 127.25415"
   version="1.1"
   id="svg8"
   inkscape:version="0.92.4 (5da689c313, 2019-01-14)"
   sodipodi:docname="record_management.svg"
   inkscape:export-filename="C:\Users\Pascal\record_management.png"
   inkscape:export-xdpi="300"
   inkscape:export-ydpi="300">
  <defs
     id="defs2" />
  <sodipodi:namedview
     id="base"
     pagecolor="#ffffff"
     bordercolor="#666666"
     borderopacity="1.0"
     inkscape:pageopacity="0.0"
     inkscape:pageshadow="2"
     inkscape:zoom="1.979899"
     inkscape:cx="235.07485"
     inkscape:cy="228.98681"
     inkscape:document-units="mm"
     inkscape:current-layer="layer1"
     showgrid="false"
     inkscape:object-paths="true"
     inkscape:snap-intersection-paths="true"
     inkscape:snap-center="true"
     fit-margin-top="10"
     fit-margin-left="10"
     fit-margin-right="10"
     fit-margin-bottom="10"
     inkscape:window-width="3440"
     inkscape:window-height="1377"
     inkscape:window-x="3432"
     inkscape:window-y="-8"
     inkscape:window-maximized="1" />
  <metadata
     id="metadata5">
    <rdf:RDF>
      <cc:Work
         rdf:about="">
        <dc:format>image/svg+xml</dc:format>
        <dc:type
           rdf:resource="http://purl.org/dc/dcmitype/StillImage" />
        <dc:title></dc:title>
      </cc:Work>
    </rdf:RDF>
  </metadata>
  <g
     inkscape:label="Ebene 1"
     inkscape:groupmode="layer"
     id="layer1"
     transform="translate(-20.295551,-60.182264)">
    <circle
       r="53.422676"
       cy="96.640175"
       cx="-114.1597"
       id="circle4595"
       style="opacity:1;vector-effect:none;fill:#ccffaa;fill-opacity:1;stroke:#666666;stroke-width:0.40000001;stroke-linecap:butt;stroke-linejoin:miter;stroke-miterlimit:4;stroke-dasharray:none;stroke-dashoffset:0;stroke-opacity:1"
       transform="rotate(-83.881815)" />
    <circle
       style="opacity:1;vector-effect:none;fill:#ffffff;fill-opacity:1;stroke:#666666;stroke-width:0.40000001;stroke-linecap:butt;stroke-linejoin:miter;stroke-miterlimit:4;stroke-dasharray:none;stroke-dashoffset:0;stroke-opacity:1"
       id="path4518"
       cx="-114.1597"
       cy="96.640175"
       r="36.506424"
       transform="rotate(-83.881815)" />
    <g
       aria-label="CREATE  RECORD  USE  SHARE  ARCHIVE  DELETE"
       style="font-style:normal;font-variant:normal;font-weight:normal;font-stretch:normal;font-size:10.05416679px;line-height:1.25;font-family:sans-serif;-inkscape-font-specification:'sans-serif, Normal';font-variant-ligatures:normal;font-variant-caps:normal;font-variant-numeric:normal;font-feature-settings:normal;text-align:start;letter-spacing:0px;word-spacing:0px;writing-mode:lr-tb;text-anchor:start;fill:#000000;fill-opacity:1;stroke:none;stroke-width:0.26458332"
       id="text4522"
       transform="rotate(-83.881815,83.92263,123.80934)">
      <path
         d="m 131.15544,130.8443 -1.04189,-0.0888 q 0.50721,-0.45934 0.78546,-1.00717 0.27784,-0.54293 0.33202,-1.17883 0.10671,-1.25224 -0.60458,-1.98292 -0.70639,-0.73028 -2.15428,-0.85365 -1.443,-0.12297 -2.26766,0.47684 -0.81977,0.60023 -0.92647,1.85246 -0.0542,0.6359 0.12778,1.21802 0.18155,0.58701 0.60373,1.12554 l -1.03211,-0.088 q -0.30801,-0.54851 -0.43451,-1.14561 -0.12691,-0.59221 -0.0719,-1.23789 0.1413,-1.65823 1.23513,-2.5258 1.09872,-0.86715 2.85478,-0.71751 1.76095,0.15005 2.69222,1.19018 0.93616,1.04055 0.79486,2.69878 -0.0559,0.65547 -0.28113,1.21766 -0.22081,0.56751 -0.61146,1.04663 z"
         style="font-style:normal;font-variant:normal;font-weight:normal;font-stretch:normal;font-size:10.05416679px;font-family:sans-serif;-inkscape-font-specification:'sans-serif, Normal';font-variant-ligatures:normal;font-variant-caps:normal;font-variant-numeric:normal;font-feature-settings:normal;text-align:start;writing-mode:lr-tb;text-anchor:start;stroke-width:0.26458332"
         id="path4528"
         inkscape:connector-curvature="0" />
      <path
         d="m 126.55596,136.02853 q -0.18549,0.28122 -0.60341,0.48112 -0.41917,0.20464 -1.09475,0.34197 l -2.19287,0.46482 0.2705,-1.03039 2.05672,-0.42951 q 0.80449,-0.16439 1.12442,-0.4357 0.31869,-0.26655 0.46827,-0.83636 l 0.27425,-1.04464 -2.99622,-0.78657 0.25181,-0.95917 7.0893,1.86111 -0.56843,2.16525 q -0.31912,1.21558 -0.98426,1.6805 -0.66514,0.46491 -1.69079,0.19565 -0.66952,-0.17576 -1.02884,-0.60509 -0.36058,-0.42457 -0.3757,-1.06299 z m 3.60799,-1.62108 -2.51664,-0.66068 -0.31662,1.20609 q -0.182,0.69326 0.0439,1.12816 0.2294,0.44089 0.85144,0.60419 0.62203,0.1633 1.02892,-0.11056 0.41038,-0.26785 0.59238,-0.96112 z"
         style="font-style:normal;font-variant:normal;font-weight:normal;font-stretch:normal;font-size:10.05416679px;font-family:sans-serif;-inkscape-font-specification:'sans-serif, Normal';font-variant-ligatures:normal;font-variant-caps:normal;font-variant-numeric:normal;font-feature-settings:normal;text-align:start;writing-mode:lr-tb;text-anchor:start;stroke-width:0.26458332"
         id="path4530"
         inkscape:connector-curvature="0" />
      <path
         d="m 128.84633,141.50367 -1.89449,4.22943 -0.76166,-0.34117 1.48911,-3.3244 -1.98031,-0.88704 -1.42689,3.18551 -0.76165,-0.34117 1.42689,-3.18551 -2.42385,-1.08572 -1.52523,3.40504 -0.76166,-0.34117 1.93062,-4.31007 z"
         style="font-style:normal;font-variant:normal;font-weight:normal;font-stretch:normal;font-size:10.05416679px;font-family:sans-serif;-inkscape-font-specification:'sans-serif, Normal';font-variant-ligatures:normal;font-variant-caps:normal;font-variant-numeric:normal;font-feature-settings:normal;text-align:start;writing-mode:lr-tb;text-anchor:start;stroke-width:0.26458332"
         id="path4532"
         inkscape:connector-curvature="0" />
      <path
         d="m 123.41444,149.75273 -2.33353,-3.10948 -1.4628,2.26368 z m 1.12428,0.0602 -0.61016,0.94423 -7.67214,-1.6319 0.55954,-0.86589 1.94158,0.45973 1.79319,-2.77497 -1.21685,-1.58126 0.56753,-0.87826 z"
         style="font-style:normal;font-variant:normal;font-weight:normal;font-stretch:normal;font-size:10.05416679px;font-family:sans-serif;-inkscape-font-specification:'sans-serif, Normal';font-variant-ligatures:normal;font-variant-caps:normal;font-variant-numeric:normal;font-feature-settings:normal;text-align:start;writing-mode:lr-tb;text-anchor:start;stroke-width:0.26458332"
         id="path4534"
         inkscape:connector-curvature="0" />
      <path
         d="m 122.15116,153.36752 -4.10123,4.65025 -0.62592,-0.55203 1.72102,-1.95141 -4.87116,-4.29606 0.65918,-0.74743 4.87117,4.29606 1.72102,-1.95141 z"
         style="font-style:normal;font-variant:normal;font-weight:normal;font-stretch:normal;font-size:10.05416679px;font-family:sans-serif;-inkscape-font-specification:'sans-serif, Normal';font-variant-ligatures:normal;font-variant-caps:normal;font-variant-numeric:normal;font-feature-settings:normal;text-align:start;writing-mode:lr-tb;text-anchor:start;stroke-width:0.26458332"
         id="path4536"
         inkscape:connector-curvature="0" />
      <path
         d="m 116.50817,159.42314 -3.55652,2.97125 -0.53508,-0.64048 2.79549,-2.33545 -1.3912,-1.66523 -2.67869,2.23788 -0.53508,-0.64048 2.67869,-2.23788 -1.7028,-2.03821 -2.8633,2.39211 -0.53508,-0.64048 3.62433,-3.0279 z"
         style="font-style:normal;font-variant:normal;font-weight:normal;font-stretch:normal;font-size:10.05416679px;font-family:sans-serif;-inkscape-font-specification:'sans-serif, Normal';font-variant-ligatures:normal;font-variant-caps:normal;font-variant-numeric:normal;font-feature-settings:normal;text-align:start;writing-mode:lr-tb;text-anchor:start;stroke-width:0.26458332"
         id="path4538"
         inkscape:connector-curvature="0" />
      <path
         d="m 99.292908,165.4112 q -0.33647,0.0167 -0.744796,-0.20213 -0.412892,-0.21704 -0.923115,-0.68065 l -1.671505,-1.4936 0.990911,-0.39113 1.562514,1.40467 q 0.608279,0.55159 1.016246,0.64917 0.403401,0.0994 0.951367,-0.1169 l 1.00461,-0.39654 -1.13733,-2.8814 0.92242,-0.36409 2.69102,6.81765 -2.08228,0.8219 q -1.169,0.46143 -1.93723,0.19993 -0.768228,-0.2615 -1.157552,-1.24785 -0.254142,-0.64386 -0.120385,-1.1875 0.129191,-0.54183 0.635105,-0.93153 z m 3.440722,1.95111 -0.95528,-2.42019 -1.15987,0.45781 q -0.666697,0.26316 -0.883849,0.70249 -0.219916,0.44569 0.0162,1.04389 0.236118,0.5982 0.697559,0.7644 0.45868,0.17257 1.12538,-0.0906 z"
         style="font-style:normal;font-variant:normal;font-weight:normal;font-stretch:normal;font-size:10.05416679px;font-family:sans-serif;-inkscape-font-specification:'sans-serif, Normal';font-variant-ligatures:normal;font-variant-caps:normal;font-variant-numeric:normal;font-feature-settings:normal;text-align:start;writing-mode:lr-tb;text-anchor:start;stroke-width:0.26458332"
         id="path4540"
         inkscape:connector-curvature="0" />
      <path
         d="m 96.231758,170.49582 -4.531047,0.97301 -0.175224,-0.81598 3.56148,-0.7648 -0.455583,-2.12153 -3.412684,0.73285 -0.175224,-0.81597 3.412684,-0.73285 -0.557624,-2.59671 -3.647877,0.78335 -0.175224,-0.81597 4.617444,-0.99156 z"
         style="font-style:normal;font-variant:normal;font-weight:normal;font-stretch:normal;font-size:10.05416679px;font-family:sans-serif;-inkscape-font-specification:'sans-serif, Normal';font-variant-ligatures:normal;font-variant-caps:normal;font-variant-numeric:normal;font-feature-settings:normal;text-align:start;writing-mode:lr-tb;text-anchor:start;stroke-width:0.26458332"
         id="path4542"
         inkscape:connector-curvature="0" />
      <path
         d="m 83.283093,171.55343 -0.0503,-1.04446 q 0.522598,0.44175 1.102511,0.64483 0.57501,0.20331 1.212476,0.17261 1.255316,-0.0605 1.885129,-0.86243 0.630049,-0.79707 0.560152,-2.24853 -0.06966,-1.44655 -0.773622,-2.1843 -0.703724,-0.73284 -1.95904,-0.67239 -0.637465,0.0307 -1.190278,0.28832 -0.557717,0.25786 -1.035449,0.74779 l -0.04982,-1.03466 q 0.502777,-0.37809 1.077802,-0.58272 0.570121,-0.20439 1.217394,-0.23556 1.662313,-0.08 2.667392,0.88894 1.005314,0.9739 1.090088,2.73428 0.08501,1.76529 -0.822307,2.82638 -0.907081,1.06599 -2.569394,1.14604 -0.65708,0.0316 -1.244203,-0.11702 -0.591791,-0.14352 -1.118529,-0.46712 z"
         style="font-style:normal;font-variant:normal;font-weight:normal;font-stretch:normal;font-size:10.05416679px;font-family:sans-serif;-inkscape-font-specification:'sans-serif, Normal';font-variant-ligatures:normal;font-variant-caps:normal;font-variant-numeric:normal;font-feature-settings:normal;text-align:start;writing-mode:lr-tb;text-anchor:start;stroke-width:0.26458332"
         id="path4544"
         inkscape:connector-curvature="0" />
      <path
         d="m 77.572153,170.93738 q 1.070514,0.14311 1.809772,-0.57034 0.734393,-0.71411 0.918485,-2.09118 0.183442,-1.3722 -0.337587,-2.25414 -0.525894,-0.88258 -1.596408,-1.02569 -1.070514,-0.14311 -1.800041,0.57164 -0.734393,0.71411 -0.917834,2.08631 -0.184092,1.37707 0.336936,2.259 0.516162,0.88129 1.586677,1.0244 z m -0.106683,0.79802 q -1.527915,-0.20426 -2.305462,-1.35327 -0.778198,-1.14415 -0.54792,-2.86671 0.229627,-1.71769 1.281686,-2.62211 1.051408,-0.89956 2.579323,-0.6953 1.532782,0.2049 2.315845,1.3497 0.778198,1.14415 0.54792,2.86671 -0.230277,1.72255 -1.281686,2.62211 -1.056924,0.90378 -2.589706,0.69887 z"
         style="font-style:normal;font-variant:normal;font-weight:normal;font-stretch:normal;font-size:10.05416679px;font-family:sans-serif;-inkscape-font-specification:'sans-serif, Normal';font-variant-ligatures:normal;font-variant-caps:normal;font-variant-numeric:normal;font-feature-settings:normal;text-align:start;writing-mode:lr-tb;text-anchor:start;stroke-width:0.26458332"
         id="path4546"
         inkscape:connector-curvature="0" />
      <path
         d="m 69.216469,165.65065 q -0.269738,-0.20182 -0.444529,-0.63085 -0.179457,-0.43055 -0.27653,-1.11308 l -0.334105,-2.21656 1.012561,0.33106 0.306921,2.07855 q 0.116451,0.81282 0.368327,1.14826 0.24721,0.33391 0.807152,0.51699 l 1.02656,0.33564 0.96268,-2.94436 0.942569,0.30818 -2.277783,6.96661 -2.127779,-0.69569 q -1.194543,-0.39057 -1.619239,-1.08208 -0.424695,-0.69151 -0.09516,-1.69941 0.215115,-0.65793 0.664968,-0.99119 0.445187,-0.33479 1.083383,-0.31207 z m 1.404511,3.69767 0.80859,-2.47307 -1.185211,-0.38752 q -0.681262,-0.22274 -1.128778,-0.023 -0.453707,0.20287 -0.653566,0.81414 -0.199859,0.61127 0.04941,1.03367 0.243079,0.42553 0.924342,0.64827 z"
         style="font-style:normal;font-variant:normal;font-weight:normal;font-stretch:normal;font-size:10.05416679px;font-family:sans-serif;-inkscape-font-specification:'sans-serif, Normal';font-variant-ligatures:normal;font-variant-caps:normal;font-variant-numeric:normal;font-feature-settings:normal;text-align:start;writing-mode:lr-tb;text-anchor:start;stroke-width:0.26458332"
         id="path4548"
         inkscape:connector-curvature="0" />
      <path
         d="m 63.004501,166.40372 2.717787,-5.00996 -1.052911,-0.57118 q -1.333399,-0.72334 -2.2782,-0.45396 -0.949116,0.26704 -1.656069,1.57023 -0.70227,1.29457 -0.406266,2.23147 0.289349,0.93888 1.622748,1.66222 z m 0.483082,1.18918 -1.790811,-0.97147 q -1.872801,-1.01595 -2.325085,-2.27221 -0.454625,-1.25194 0.444282,-2.90898 0.903588,-1.66567 2.207594,-1.96918 1.304006,-0.30351 3.168176,0.70776 l 1.790811,0.97148 z"
         style="font-style:normal;font-variant:normal;font-weight:normal;font-stretch:normal;font-size:10.05416679px;font-family:sans-serif;-inkscape-font-specification:'sans-serif, Normal';font-variant-ligatures:normal;font-variant-caps:normal;font-variant-numeric:normal;font-feature-settings:normal;text-align:start;writing-mode:lr-tb;text-anchor:start;stroke-width:0.26458332"
         id="path4550"
         inkscape:connector-curvature="0" />
      <path
         d="m 49.979893,158.17616 -0.667328,-0.74017 3.307047,-2.9816 q 0.875073,-0.78896 0.975566,-1.45463 0.09685,-0.66239 -0.544182,-1.37338 -0.637742,-0.70735 -1.306584,-0.6794 -0.672488,0.0312 -1.547561,0.8202 l -3.307047,2.98161 -0.667327,-0.74017 3.3982,-3.06379 q 1.064672,-0.9599 2.084609,-0.92102 1.016649,0.0352 1.943676,1.06345 0.930314,1.03185 0.863702,2.05035 -0.0699,1.01486 -1.134571,1.97476 z"
         style="font-style:normal;font-variant:normal;font-weight:normal;font-stretch:normal;font-size:10.05416679px;font-family:sans-serif;-inkscape-font-specification:'sans-serif, Normal';font-variant-ligatures:normal;font-variant-caps:normal;font-variant-numeric:normal;font-feature-settings:normal;text-align:start;writing-mode:lr-tb;text-anchor:start;stroke-width:0.26458332"
         id="path4552"
         inkscape:connector-curvature="0" />
      <path
         d="m 42.231113,147.67286 0.816185,-0.51881 q 0.07499,0.6213 0.231758,1.115 0.156763,0.4937 0.406954,0.88729 0.434542,0.68361 0.936722,0.88793 0.499546,0.20019 0.988429,-0.11058 0.410164,-0.26072 0.466079,-0.63948 0.04914,-0.38026 -0.259603,-1.14965 l -0.217721,-0.5713 q -0.417039,-1.04958 -0.247238,-1.77995 0.163024,-0.73187 0.917063,-1.21119 0.899047,-0.57149 1.747575,-0.26156 0.845894,0.30578 1.585933,1.46999 0.279161,0.43916 0.495758,0.99954 0.213963,0.55623 0.356338,1.21032 l -0.861759,0.54779 q -0.03806,-0.69132 -0.203815,-1.27238 -0.165756,-0.58105 -0.465986,-1.05337 -0.455611,-0.71675 -0.984897,-0.92711 -0.529286,-0.21037 -1.051314,0.12147 -0.455738,0.28969 -0.533524,0.7347 -0.08042,0.44087 0.196718,1.16055 l 0.224498,0.5728 q 0.408753,1.05485 0.27701,1.72612 -0.131742,0.67128 -0.840207,1.12162 -0.820329,0.52145 -1.658708,0.24579 -0.841013,-0.2798 -1.486242,-1.29485 -0.276527,-0.43502 -0.48487,-0.93666 -0.208343,-0.50163 -0.351136,-1.07402 z"
         style="font-style:normal;font-variant:normal;font-weight:normal;font-stretch:normal;font-size:10.05416679px;font-family:sans-serif;-inkscape-font-specification:'sans-serif, Normal';font-variant-ligatures:normal;font-variant-caps:normal;font-variant-numeric:normal;font-feature-settings:normal;text-align:start;writing-mode:lr-tb;text-anchor:start;stroke-width:0.26458332"
         id="path4554"
         inkscape:connector-curvature="0" />
      <path
         d="m 40.554931,145.02996 -1.847282,-4.25026 0.765406,-0.33267 1.451996,3.34078 1.990056,-0.86494 -1.391332,-3.2012 0.765406,-0.33266 1.391332,3.2012 2.435793,-1.05867 -1.487218,-3.42182 0.765406,-0.33266 1.882506,4.3313 z"
         style="font-style:normal;font-variant:normal;font-weight:normal;font-stretch:normal;font-size:10.05416679px;font-family:sans-serif;-inkscape-font-specification:'sans-serif, Normal';font-variant-ligatures:normal;font-variant-caps:normal;font-variant-numeric:normal;font-feature-settings:normal;text-align:start;writing-mode:lr-tb;text-anchor:start;stroke-width:0.26458332"
         id="path4556"
         inkscape:connector-curvature="0" />
      <path
         d="m 35.954124,126.27998 0.962656,-0.0929 q -0.214553,0.58788 -0.298411,1.09904 -0.08386,0.51115 -0.03908,0.97538 0.07778,0.80628 0.432942,1.21591 0.354693,0.40474 0.931309,0.34911 0.483771,-0.0467 0.705176,-0.35901 0.216046,-0.31676 0.289282,-1.14255 l 0.06466,-0.60795 q 0.103592,-1.12463 0.585792,-1.69888 0.476843,-0.57865 1.3662,-0.66444 1.060387,-0.10229 1.676505,0.55835 0.615646,0.65576 0.748102,2.02889 0.04997,0.51798 -0.01075,1.11568 -0.06119,0.59282 -0.230518,1.24045 l -1.016408,0.0981 q 0.279195,-0.63357 0.394603,-1.22669 0.115408,-0.59311 0.06167,-1.15018 -0.08155,-0.84538 -0.458144,-1.27267 -0.376597,-0.42728 -0.992306,-0.36789 -0.537523,0.0519 -0.808438,0.41337 -0.271385,0.35662 -0.350278,1.12377 l -0.0593,0.61236 q -0.113365,1.12558 -0.534868,1.66438 -0.421503,0.53879 -1.257108,0.6194 -0.967542,0.0933 -1.590133,-0.53217 -0.623063,-0.63038 -0.738549,-1.82759 -0.04949,-0.5131 -0.008,-1.05469 0.04146,-0.54159 0.173418,-1.11657 z"
         style="font-style:normal;font-variant:normal;font-weight:normal;font-stretch:normal;font-size:10.05416679px;font-family:sans-serif;-inkscape-font-specification:'sans-serif, Normal';font-variant-ligatures:normal;font-variant-caps:normal;font-variant-numeric:normal;font-feature-settings:normal;text-align:start;writing-mode:lr-tb;text-anchor:start;stroke-width:0.26458332"
         id="path4558"
         inkscape:connector-curvature="0" />
      <path
         d="m 35.625821,123.07152 0.07177,-0.98907 2.996589,0.21743 0.260781,-3.59395 -2.996589,-0.21743 0.07177,-0.98907 7.310307,0.53044 -0.07177,0.98907 -3.481332,-0.25261 -0.260781,3.59395 3.481332,0.25261 -0.07177,0.98907 z"
         style="font-style:normal;font-variant:normal;font-weight:normal;font-stretch:normal;font-size:10.05416679px;font-family:sans-serif;-inkscape-font-specification:'sans-serif, Normal';font-variant-ligatures:normal;font-variant-caps:normal;font-variant-numeric:normal;font-feature-settings:normal;text-align:start;writing-mode:lr-tb;text-anchor:start;stroke-width:0.26458332"
         id="path4560"
         inkscape:connector-curvature="0" />
      <path
         d="m 38.132641,112.13558 3.203548,2.20262 0.664247,-2.61205 z m -1.084739,0.30162 0.277072,-1.08954 7.791884,-0.90079 -0.254083,0.99914 -1.986798,0.18366 -0.814278,3.20202 1.657699,1.11047 -0.257714,1.01341 z"
         style="font-style:normal;font-variant:normal;font-weight:normal;font-stretch:normal;font-size:10.05416679px;font-family:sans-serif;-inkscape-font-specification:'sans-serif, Normal';font-variant-ligatures:normal;font-variant-caps:normal;font-variant-numeric:normal;font-feature-settings:normal;text-align:start;writing-mode:lr-tb;text-anchor:start;stroke-width:0.26458332"
         id="path4562"
         inkscape:connector-curvature="0" />
      <path
         d="m 43.817447,104.87771 q 0.228661,-0.24739 0.67348,-0.37683 0.446819,-0.13392 1.13573,-0.15982 l 2.239237,-0.10285 -0.434106,0.97285 -2.099151,0.0901 q -0.820513,0.0317 -1.180223,0.24748 -0.357709,0.21131 -0.597768,0.74929 l -0.440108,0.9863 2.828885,1.26231 -0.404098,0.90561 -6.693385,-2.98674 0.912223,-2.04433 q 0.512125,-1.14769 1.243887,-1.49852 0.731762,-0.35082 1.700128,0.0813 0.632128,0.28207 0.917032,0.76401 0.286903,0.47745 0.198237,1.10986 z m -3.823201,1.01418 2.376084,1.06026 0.508125,-1.13872 q 0.292071,-0.65455 0.139735,-1.12034 -0.15482,-0.47227 -0.742116,-0.73433 -0.587296,-0.26207 -1.033223,-0.0579 -0.448409,0.19772 -0.740481,0.85227 z"
         style="font-style:normal;font-variant:normal;font-weight:normal;font-stretch:normal;font-size:10.05416679px;font-family:sans-serif;-inkscape-font-specification:'sans-serif, Normal';font-variant-ligatures:normal;font-variant-caps:normal;font-variant-numeric:normal;font-feature-settings:normal;text-align:start;writing-mode:lr-tb;text-anchor:start;stroke-width:0.26458332"
         id="path4564"
         inkscape:connector-curvature="0" />
      <path
         d="m 42.442401,99.108305 2.552579,-3.868006 0.696568,0.45968 -2.006369,3.040319 1.811079,1.195169 1.922546,-2.913297 0.696569,0.45968 -1.922546,2.9133 2.216728,1.46286 2.055042,-3.11407 0.696569,0.45968 -2.601251,3.94176 z"
         style="font-style:normal;font-variant:normal;font-weight:normal;font-stretch:normal;font-size:10.05416679px;font-family:sans-serif;-inkscape-font-specification:'sans-serif, Normal';font-variant-ligatures:normal;font-variant-caps:normal;font-variant-numeric:normal;font-feature-settings:normal;text-align:start;writing-mode:lr-tb;text-anchor:start;stroke-width:0.26458332"
         id="path4566"
         inkscape:connector-curvature="0" />
      <path
         d="m 54.58049,86.778743 1.213018,3.69362 2.111516,-1.674969 z m -1.045594,-0.417568 0.880759,-0.698667 6.7435,4.006257 -0.807684,0.640698 -1.691583,-1.058132 -2.588434,2.053287 0.645441,1.887989 -0.819221,0.649851 z"
         style="font-style:normal;font-variant:normal;font-weight:normal;font-stretch:normal;font-size:10.05416679px;font-family:sans-serif;-inkscape-font-specification:'sans-serif, Normal';font-variant-ligatures:normal;font-variant-caps:normal;font-variant-numeric:normal;font-feature-settings:normal;text-align:start;writing-mode:lr-tb;text-anchor:start;stroke-width:0.26458332"
         id="path4568"
         inkscape:connector-curvature="0" />
      <path
         d="m 63.471736,84.451837 q 0.331381,-0.06064 0.764861,0.102799 0.437771,0.161056 1.004345,0.553818 l 1.852807,1.261692 -0.931115,0.517599 -1.733104,-1.187814 q -0.675311,-0.46712 -1.092548,-0.510404 -0.412946,-0.04567 -0.927848,0.24056 l -0.943988,0.524755 1.505092,2.707529 -0.866752,0.481821 -3.561178,-6.406246 1.95663,-1.087674 q 1.098458,-0.610623 1.894328,-0.452043 0.795869,0.15858 1.311083,1.085404 0.33632,0.60501 0.274952,1.161486 -0.05708,0.554091 -0.507565,1.006718 z m -3.666724,-1.483429 1.264182,2.274152 1.089877,-0.605853 q 0.626465,-0.348246 0.784177,-0.812242 0.159617,-0.470672 -0.152851,-1.032774 -0.312468,-0.562102 -0.791708,-0.666404 -0.477335,-0.110979 -1.1038,0.237267 z"
         style="font-style:normal;font-variant:normal;font-weight:normal;font-stretch:normal;font-size:10.05416679px;font-family:sans-serif;-inkscape-font-specification:'sans-serif, Normal';font-variant-ligatures:normal;font-variant-caps:normal;font-variant-numeric:normal;font-feature-settings:normal;text-align:start;writing-mode:lr-tb;text-anchor:start;stroke-width:0.26458332"
         id="path4570"
         inkscape:connector-curvature="0" />
      <path
         d="m 70.766184,77.897021 0.349799,0.98543 q -0.62791,-0.272001 -1.241761,-0.298943 -0.609226,-0.02858 -1.210662,0.184909 -1.184366,0.420416 -1.555727,1.370111 -0.373004,0.945069 0.113102,2.314493 0.484463,1.364797 1.371491,1.867801 0.885385,0.498377 2.069752,0.07796 0.601436,-0.213492 1.056289,-0.619793 0.459481,-0.407943 0.775363,-1.014963 l 0.346515,0.976177 q -0.37216,0.507181 -0.863584,0.86916 -0.486798,0.360337 -1.097487,0.577114 -1.56836,0.556722 -2.81046,-0.08071 -1.243742,-0.642059 -1.833309,-2.302948 -0.59121,-1.665515 -0.029,-2.943425 0.560566,-1.282536 2.128926,-1.839258 0.619942,-0.220062 1.224981,-0.247296 0.608024,-0.0335 1.205773,0.12418 z"
         style="font-style:normal;font-variant:normal;font-weight:normal;font-stretch:normal;font-size:10.05416679px;font-family:sans-serif;-inkscape-font-specification:'sans-serif, Normal';font-variant-ligatures:normal;font-variant-caps:normal;font-variant-numeric:normal;font-feature-settings:normal;text-align:start;writing-mode:lr-tb;text-anchor:start;stroke-width:0.26458332"
         id="path4572"
         inkscape:connector-curvature="0" />
      <path
         d="m 73.359493,76.666865 0.978744,-0.159603 0.483547,2.965301 3.556423,-0.579941 -0.483548,-2.965301 0.978743,-0.159602 1.179636,7.233977 -0.978743,0.159602 -0.561769,-3.444982 -3.556423,0.579942 0.561769,3.444982 -0.978743,0.159602 z"
         style="font-style:normal;font-variant:normal;font-weight:normal;font-stretch:normal;font-size:10.05416679px;font-family:sans-serif;-inkscape-font-specification:'sans-serif, Normal';font-variant-ligatures:normal;font-variant-caps:normal;font-variant-numeric:normal;font-feature-settings:normal;text-align:start;writing-mode:lr-tb;text-anchor:start;stroke-width:0.26458332"
         id="path4574"
         inkscape:connector-curvature="0" />
      <path
         d="m 81.789376,75.631538 0.991115,-0.0332 0.245371,7.325418 -0.991115,0.0332 z"
         style="font-style:normal;font-variant:normal;font-weight:normal;font-stretch:normal;font-size:10.05416679px;font-family:sans-serif;-inkscape-font-specification:'sans-serif, Normal';font-variant-ligatures:normal;font-variant-caps:normal;font-variant-numeric:normal;font-feature-settings:normal;text-align:start;writing-mode:lr-tb;text-anchor:start;stroke-width:0.26458332"
         id="path4576"
         inkscape:connector-curvature="0" />
      <path
         d="m 86.887589,83.019041 -2.163784,-7.541244 1.03209,0.08823 1.788003,6.346307 2.844171,-5.950302 1.027198,0.08782 -3.407543,7.064951 z"
         style="font-style:normal;font-variant:normal;font-weight:normal;font-stretch:normal;font-size:10.05416679px;font-family:sans-serif;-inkscape-font-specification:'sans-serif, Normal';font-variant-ligatures:normal;font-variant-caps:normal;font-variant-numeric:normal;font-feature-settings:normal;text-align:start;writing-mode:lr-tb;text-anchor:start;stroke-width:0.26458332"
         id="path4578"
         inkscape:connector-curvature="0" />
      <path
         d="m 93.631547,76.51553 4.493305,1.134614 -0.204327,0.809175 -3.531813,-0.891825 -0.531249,2.103856 3.384257,0.854566 -0.204326,0.809176 -3.384258,-0.854566 -0.650239,2.575082 3.61749,0.91346 -0.204326,0.809175 -4.578982,-1.156248 z"
         style="font-style:normal;font-variant:normal;font-weight:normal;font-stretch:normal;font-size:10.05416679px;font-family:sans-serif;-inkscape-font-specification:'sans-serif, Normal';font-variant-ligatures:normal;font-variant-caps:normal;font-variant-numeric:normal;font-feature-settings:normal;text-align:start;writing-mode:lr-tb;text-anchor:start;stroke-width:0.26458332"
         id="path4580"
         inkscape:connector-curvature="0" />
      <path
         d="m 108.20475,83.042404 -3.11304,4.774414 1.00341,0.654248 q 1.27071,0.828534 2.23416,0.63624 0.96757,-0.189613 1.77733,-1.431536 0.8044,-1.233699 0.58493,-2.191426 -0.21267,-0.959158 -1.48338,-1.787692 z m -0.38559,-1.224277 1.70662,1.112756 q 1.78475,1.163703 2.13423,2.452347 0.35216,1.284531 -0.67747,2.863666 -1.035,1.587359 -2.35924,1.784697 -1.32424,0.197338 -3.10076,-0.961002 l -1.70662,-1.112757 z"
         style="font-style:normal;font-variant:normal;font-weight:normal;font-stretch:normal;font-size:10.05416679px;font-family:sans-serif;-inkscape-font-specification:'sans-serif, Normal';font-variant-ligatures:normal;font-variant-caps:normal;font-variant-numeric:normal;font-feature-settings:normal;text-align:start;writing-mode:lr-tb;text-anchor:start;stroke-width:0.26458332"
         id="path4582"
         inkscape:connector-curvature="0" />
      <path
         d="m 115.16314,87.009354 3.39239,3.157347 -0.56859,0.610917 -2.66647,-2.481729 -1.47834,1.588385 2.55507,2.378044 -0.56859,0.610917 -2.55507,-2.378044 -1.80945,1.944154 2.73116,2.541932 -0.56859,0.610917 -3.45707,-3.21755 z"
         style="font-style:normal;font-variant:normal;font-weight:normal;font-stretch:normal;font-size:10.05416679px;font-family:sans-serif;-inkscape-font-specification:'sans-serif, Normal';font-variant-ligatures:normal;font-variant-caps:normal;font-variant-numeric:normal;font-feature-settings:normal;text-align:start;writing-mode:lr-tb;text-anchor:start;stroke-width:0.26458332"
         id="path4584"
         inkscape:connector-curvature="0" />
      <path
         d="m 120.42704,92.248271 0.62036,0.773666 -5.06712,4.063081 2.2327,2.784431 -0.65111,0.522091 -2.85306,-3.558098 z"
         style="font-style:normal;font-variant:normal;font-weight:normal;font-stretch:normal;font-size:10.05416679px;font-family:sans-serif;-inkscape-font-specification:'sans-serif, Normal';font-variant-ligatures:normal;font-variant-caps:normal;font-variant-numeric:normal;font-feature-settings:normal;text-align:start;writing-mode:lr-tb;text-anchor:start;stroke-width:0.26458332"
         id="path4586"
         inkscape:connector-curvature="0" />
      <path
         d="m 124.44507,97.568878 2.34258,3.998682 -0.7201,0.42186 -1.84131,-3.143029 -1.87226,1.096845 1.76438,3.011714 -0.7201,0.42187 -1.76439,-3.01172 -2.29161,1.34252 1.88598,3.21927 -0.72011,0.42187 -2.38725,-4.07493 z"
         style="font-style:normal;font-variant:normal;font-weight:normal;font-stretch:normal;font-size:10.05416679px;font-family:sans-serif;-inkscape-font-specification:'sans-serif, Normal';font-variant-ligatures:normal;font-variant-caps:normal;font-variant-numeric:normal;font-feature-settings:normal;text-align:start;writing-mode:lr-tb;text-anchor:start;stroke-width:0.26458332"
         id="path4588"
         inkscape:connector-curvature="0" />
      <path
         d="m 127.6424,103.20508 2.27904,5.76636 -0.77616,0.30676 -0.95636,-2.41977 -6.0403,2.3873 -0.3663,-0.92682 6.04029,-2.3873 -0.95636,-2.41977 z"
         style="font-style:normal;font-variant:normal;font-weight:normal;font-stretch:normal;font-size:10.05416679px;font-family:sans-serif;-inkscape-font-specification:'sans-serif, Normal';font-variant-ligatures:normal;font-variant-caps:normal;font-variant-numeric:normal;font-feature-settings:normal;text-align:start;writing-mode:lr-tb;text-anchor:start;stroke-width:0.26458332"
         id="path4590"
         inkscape:connector-curvature="0" />
      <path
         d="m 130.47415,110.99815 1.02198,4.52025 -0.81403,0.18405 -0.80329,-3.553 -2.11648,0.47851 0.76973,3.40456 -0.81402,0.18404 -0.76974,-3.40456 -2.59052,0.58569 0.82278,3.63919 -0.81403,0.18404 -1.04147,-4.60644 z"
         style="font-style:normal;font-variant:normal;font-weight:normal;font-stretch:normal;font-size:10.05416679px;font-family:sans-serif;-inkscape-font-specification:'sans-serif, Normal';font-variant-ligatures:normal;font-variant-caps:normal;font-variant-numeric:normal;font-feature-settings:normal;text-align:start;writing-mode:lr-tb;text-anchor:start;stroke-width:0.26458332"
         id="path4592"
         inkscape:connector-curvature="0" />
    </g>
    <path
       style="fill:none;stroke:#666666;stroke-width:0.40000001;stroke-linecap:butt;stroke-linejoin:miter;stroke-miterlimit:4;stroke-dasharray:none;stroke-opacity:1"
       d="m 34.719903,102.99891 10.387543,-1.71855 5.177343,8.34397"
       id="path4599"
       inkscape:connector-curvature="0"
       sodipodi:nodetypes="ccc"
       inkscape:transform-center-x="41.420284"
       inkscape:transform-center-y="-18.356997" />
    <path
       inkscape:transform-center-y="32.375108"
       inkscape:transform-center-x="31.203567"
       sodipodi:nodetypes="ccc"
       inkscape:connector-curvature="0"
       id="path4605"
       d="m 46.832838,162.2584 2.125907,-10.31189 9.646542,-1.83601"
       style="fill:none;stroke:#666666;stroke-width:0.40000001;stroke-linecap:butt;stroke-linejoin:miter;stroke-miterlimit:4;stroke-dasharray:none;stroke-opacity:1" />
    <path
       inkscape:transform-center-y="43.895663"
       inkscape:transform-center-x="-7.8461967"
       sodipodi:nodetypes="ccc"
       inkscape:connector-curvature="0"
       id="path4609"
       d="m 95.479149,175.96707 -7.420645,-7.46916 3.799225,-9.05497"
       style="fill:none;stroke:#666666;stroke-width:0.40000001;stroke-linecap:butt;stroke-linejoin:miter;stroke-miterlimit:4;stroke-dasharray:none;stroke-opacity:1" />
    <path
       style="fill:none;stroke:#666666;stroke-width:0.40000001;stroke-linecap:butt;stroke-linejoin:miter;stroke-miterlimit:4;stroke-dasharray:none;stroke-opacity:1"
       d="m 125.64726,157.17156 -10.46466,-1.15993 -2.72316,-9.43456"
       id="path4611"
       inkscape:connector-curvature="0"
       sodipodi:nodetypes="ccc"
       inkscape:transform-center-x="-35.13072"
       inkscape:transform-center-y="28.064973" />
    <path
       inkscape:transform-center-y="-22.129608"
       inkscape:transform-center-x="-38.88947"
       sodipodi:nodetypes="ccc"
       inkscape:connector-curvature="0"
       id="path4613"
       d="m 130.13906,97.013357 -4.87386,9.332753 -9.78006,-0.88143"
       style="fill:none;stroke:#666666;stroke-width:0.40000001;stroke-linecap:butt;stroke-linejoin:miter;stroke-miterlimit:4;stroke-dasharray:none;stroke-opacity:1" />
    <path
       style="fill:none;stroke:#666666;stroke-width:0.40000001;stroke-linecap:butt;stroke-linejoin:miter;stroke-miterlimit:4;stroke-dasharray:none;stroke-opacity:1"
       d="m 81.42327,70.445157 6.039305,8.624471 -5.28671,8.275108"
       id="path4615"
       inkscape:connector-curvature="0"
       sodipodi:nodetypes="ccc"
       inkscape:transform-center-x="-0.52029265"
       inkscape:transform-center-y="-44.914395" />
  </g>
</svg>
