<?xml version="1.0" encoding="UTF-8" standalone="no"?>
<svg id="chi-square_cdf" version="1.1" baseProfile="full" xmlns="http://www.w3.org/2000/svg" xmlns:xlink="http://www.w3.org/1999/xlink" xmlns:ev="http://www.w3.org/2001/xml-events" width="600" height="400">

  <title>Cumulative chi-Square distribution</title>
  <desc>
 chi-square distribution
 F_k(x) = \int_0^x t^(n/2-1) * exp(-t/2) / (2^(n/2) * gamma(n/2)) dt
 
 from Wikimedia Commons
 plot-range: 0 to 8
 plotted with cubic bezier-curves
 the bezier-controll-points are calculated to give a very accurate result.
 accuracy is 0.00001 units
 symbols in "Computer Modern" (TeX) font embedded
 created with a plain text editor using GNU/Linux

 about: http://commons.wikimedia.org/wiki/Image:chi-square_cdf.svg
 source: http://commons.wikimedia.org/
 rights: GNU Free Documentation license,
 Creative Commons Attribution ShareAlike license
  </desc>

  <defs>
 <!-- pstricks-style arrow, zoom 1.5 -->
 <marker id="Arrow" refX="2.52" refY="2.25" markerUnits="strokeWidth" markerWidth="6" markerHeight="4.5" orient="auto">
 <path d="M 2.52 2.25 L 0 4.5 L 6 2.25 L 0 0 z"/>
 </marker>

 <!-- now the used chars in "Computer Modern" font. They are implemented
   as plain paths and not as glyphs just because it didn't work -->

 <!-- F: horiz-adv-x="643.1"-->
 <path id="F" d="M 38 0 m 265 325 h 97 c 75 0 83 -16 83 -45 c 0 -7 0 -19 -7 -49 c -2 -5 -3 -9 -3 -11 c 0 -8 6 -12 12 -12 c 10 0 10 3 15 21 l 55 217 c 3 11 3 13 3 16 c 0 2 -2 11 -12 11 c -10 0 -11 -5 -15 -21 c -21 -78 -44 -96 -129 -96 h -91 l 64 254 c 9 35 10 39 54 39 h 132 c 123 0 146 -33 146 -110 c 0 -23 0 -27 -3 -54 c -2 -13 -2 -15 -2 -18 c 0 -5 3 -12 12 -12 c 11 0 12 6 14 25 l 20 173 c 3 27 -2 27 -27 27 h -490 c -20 0 -30 0 -30 -20 c 0 -11 9 -11 28 -11 c 37 0 65 0 65 -18 c 0 -4 0 -6 -5 -24 l -132 -529 c -10 -39 -12 -47 -91 -47 c -17 0 -28 0 -28 -19 c 0 -12 12 -12 15 -12 c 29 0 103 3 132 3 c 33 0 116 -3 149 -3 c 9 0 21 0 21 19 c 0 8 -6 10 -6 11 c -3 1 -5 1 -28 1 c -22 0 -27 0 -52 2 c -29 3 -32 7 -32 20 c 0 2 0 8 4 23 z"/>
 <!-- k: horiz-adv-x="520.6"-->
 <path id="k" d="M 55 0 m 232 683 c 0 1 0 11 -13 11 c -23 0 -96 -8 -122 -10 c -8 -1 -19 -2 -19 -20 c 0 -12 9 -12 24 -12 c 48 0 50 -7 50 -17 l -3 -20 l -145 -576 c -4 -14 -4 -16 -4 -22 c 0 -23 20 -28 29 -28 c 13 0 28 9 34 21 c 5 9 50 194 56 219 c 34 -3 116 -19 116 -85 c 0 -7 0 -11 -3 -21 c -2 -12 -4 -24 -4 -35 c 0 -59 40 -99 92 -99 c 30 0 57 16 79 53 c 25 44 36 99 36 101 c 0 10 -9 10 -12 10 c -10 0 -11 -4 -14 -18 c -20 -73 -43 -124 -87 -124 c -19 0 -32 11 -32 47 c 0 17 4 40 8 56 c 4 17 4 21 4 31 c 0 65 -63 94 -148 105 c 31 18 63 50 86 74 c 48 53 94 96 143 96 c 6 0 7 0 9 -1 c 12 -2 13 -2 21 -8 c 2 -1 2 -2 4 -4 c -48 -3 -57 -42 -57 -54 c 0 -16 11 -35 38 -35 c 26 0 55 22 55 61 c 0 30 -23 63 -68 63 c -28 0 -74 -8 -146 -88 c -34 -38 -73 -78 -111 -93 z"/>
 <!-- x: horiz-adv-x="527.8"-->
 <path id="x" d="M 29 0 m 305 302 c 6 26 29 118 99 118 c 5 0 29 0 50 -13 c -28 -5 -48 -30 -48 -54 c 0 -16 11 -35 38 -35 c 22 0 54 18 54 58 c 0 52 -59 66 -93 66 c -58 0 -93 -53 -105 -76 c -25 66 -79 76 -108 76 c -104 0 -161 -129 -161 -154 c 0 -10 10 -10 12 -10 c 8 0 11 2 13 11 c 34 106 100 131 134 131 c 19 0 54 -9 54 -67 c 0 -31 -17 -98 -54 -238 c -16 -62 -51 -104 -95 -104 c -6 0 -29 0 -50 13 c 25 5 47 26 47 54 c 0 27 -22 35 -37 35 c -30 0 -55 -26 -55 -58 c 0 -46 50 -66 94 -66 c 66 0 102 70 105 76 c 12 -37 48 -76 108 -76 c 103 0 160 129 160 154 c 0 10 -9 10 -12 10 c -9 0 -11 -4 -13 -11 c -33 -107 -101 -131 -133 -131 c -39 0 -55 32 -55 66 c 0 22 6 44 17 88 z"/>
 <!-- chi: horiz-adv-x="625.7"-->
 <path id="chi" d="M 31 0 m 552 403 c 11 11 11 13 11 16 c 0 6 -4 12 -12 12 c -6 0 -10 -5 -16 -12 l -229 -255 c -40 127 -48 152 -71 205 c -11 23 -33 73 -121 73 c -58 0 -84 -52 -84 -66 c 0 -1 0 -10 12 -10 c 9 0 11 6 13 11 c 15 39 47 43 53 43 c 30 0 60 -76 77 -120 c 32 -79 64 -195 64 -198 c 0 -1 0 -3 -8 -11 l -230 -257 c -11 -11 -11 -13 -11 -16 c 0 -6 6 -12 12 -12 c 7 0 12 7 16 11 l 229 257 c 32 -104 44 -143 68 -199 c 13 -30 35 -80 124 -80 c 58 0 85 52 85 65 c 0 5 -2 11 -12 11 c -10 0 -11 -4 -14 -14 c -9 -24 -34 -40 -53 -40 c -51 0 -119 242 -141 319 z"/>
 <!-- (: horiz-adv-x="388.9"-->
 <path id="parleft" d="M 99 0 m 232 -240 c 0 3 0 5 -17 22 c -125 126 -157 315 -157 468 c 0 174 38 348 161 473 c 13 12 13 14 13 17 c 0 7 -4 10 -10 10 c -10 0 -100 -68 -159 -195 c -51 -110 -63 -221 -63 -305 c 0 -78 11 -199 66 -312 c 60 -123 146 -188 156 -188 c 6 0 10 3 10 10 z"/>
 <!-- ): horiz-adv-x="388.9"-->
 <path id="parright" d="M 57 0 m 232 250 c 0 78 -11 199 -66 312 c -60 123 -146 188 -156 188 c -6 0 -10 -4 -10 -10 c 0 -3 0 -5 19 -23 c 98 -99 155 -258 155 -467 c 0 -171 -37 -347 -161 -473 c -13 -12 -13 -14 -13 -17 c 0 -6 4 -10 10 -10 c 10 0 100 68 159 195 c 51 110 63 221 63 305 z"/>
 <!-- =: horiz-adv-x="777.8"-->
 <path id="equal" d="M 56 0 m 631 327 c 15 0 34 0 34 20 c 0 20 -19 20 -33 20 h -599 c -14 0 -33 0 -33 -20 c 0 -20 19 -20 34 -20 z M 90 327 m 598 -194 c 14 0 33 0 33 20 c 0 20 -19 20 -34 20 h -597 c -15 0 -34 0 -34 -20 c 0 -20 19 -20 33 -20 z"/>
 <!-- 0: horiz-adv-x="500"-->
 <path id="zero" d="M 39 0 m 421 320 c 0 80 -5 160 -40 234 c -46 96 -128 112 -170 112 c -60 0 -133 -26 -174 -119 c -32 -69 -37 -147 -37 -227 c 0 -75 4 -165 45 -241 c 43 -81 116 -101 165 -101 c 54 0 130 21 174 116 c 32 69 37 147 37 226 z M 460 320 m -211 -320 c -39 0 -98 25 -116 121 c -11 60 -11 152 -11 211 c 0 64 0 130 8 184 c 19 119 94 128 119 128 c 33 0 99 -18 118 -117 c 10 -56 10 -132 10 -195 c 0 -75 0 -143 -11 -207 c -15 -95 -72 -125 -117 -125 z"/>
 <!-- 1: horiz-adv-x="500"-->
 <path id="one" d="M 89 0 m 205 640 c 0 24 0 26 -23 26 c -62 -64 -150 -64 -182 -64 v -31 c 20 0 79 0 131 26 v -518 c 0 -36 -3 -48 -93 -48 h -32 v -31 c 35 3 122 3 162 3 c 40 0 127 0 162 -3 v 31 h -32 c -90 0 -93 11 -93 48 z"/>
 <!-- 2: horiz-adv-x="500"-->
 <path id="two" d="M 50 0 m 399 174 h -25 c -5 -30 -12 -74 -22 -89 c -7 -8 -73 -8 -95 -8 h -180 l 106 103 c 156 138 216 192 216 292 c 0 114 -90 194 -212 194 c -113 0 -187 -92 -187 -181 c 0 -56 50 -56 53 -56 c 17 0 52 12 52 53 c 0 26 -18 52 -53 52 c -8 0 -10 0 -13 -1 c 23 65 77 102 135 102 c 91 0 134 -81 134 -163 c 0 -80 -50 -159 -105 -221 l -192 -214 c -11 -11 -11 -13 -11 -37 h 371 z"/>
 <!-- 3: horiz-adv-x="500"-->
 <path id="three" d="M 42 0 m 248 352 c 82 27 140 97 140 176 c 0 82 -88 138 -184 138 c -101 0 -177 -60 -177 -136 c 0 -33 22 -52 51 -52 c 31 0 51 22 51 51 c 0 50 -47 50 -62 50 c 31 49 97 62 133 62 c 41 0 96 -22 96 -112 c 0 -12 -2 -70 -28 -114 c -30 -48 -64 -51 -89 -52 c -8 -1 -32 -3 -39 -3 c -8 -1 -15 -2 -15 -12 c 0 -11 7 -11 24 -11 h 44 c 82 0 119 -68 119 -166 c 0 -136 -69 -165 -113 -165 c -43 0 -118 17 -153 76 c 35 -5 66 17 66 55 c 0 36 -27 56 -56 56 c -24 0 -56 -14 -56 -58 c 0 -91 93 -157 202 -157 c 122 0 213 91 213 193 c 0 82 -63 160 -167 181 z"/>
 <!-- 4: horiz-adv-x="500"-->
 <path id="four" d="M 28 0 m 0 165 h 266 v -87 c 0 -36 -2 -47 -76 -47 h -21 v -31 c 41 3 93 3 135 3 c 42 0 95 0 136 -3 v 31 h -21 c -74 0 -76 11 -76 47 v 87 h 100 v 31 h -100 v 455 c 0 20 0 26 -16 26 c -9 0 -12 0 -20 -12 l -307 -469 z M 28 196 m 272 0 h -244 l 244 373 z"/>
 <!-- 5: horiz-adv-x="500"-->
 <path id="five" d="M 50 0 m 399 201 c 0 119 -82 219 -190 219 c -48 0 -91 -16 -127 -51 v 195 c 20 -6 53 -13 85 -13 c 123 0 193 91 193 104 c 0 6 -3 11 -10 11 c -1 0 -3 0 -8 -3 c -20 -9 -69 -29 -136 -29 c -40 0 -86 7 -133 28 c -8 3 -10 3 -12 3 c -10 0 -10 -8 -10 -24 v -296 c 0 -18 0 -26 14 -26 c 7 0 9 3 13 9 c 11 16 48 70 129 70 c 52 0 77 -46 85 -64 c 16 -37 18 -76 18 -126 c 0 -35 0 -95 -24 -137 c -24 -39 -61 -65 -107 -65 c -73 0 -130 53 -147 112 c 3 -1 6 -2 17 -2 c 33 0 50 25 50 49 c 0 24 -17 49 -50 49 c -14 0 -49 -7 -49 -53 c 0 -86 69 -183 181 -183 c 116 0 218 96 218 223 z"/>
 <!-- 6: horiz-adv-x="500"-->
 <path id="six" d="M 42 0 m 90 328 v 24 c 0 253 124 289 175 289 c 24 0 66 -6 88 -40 c -15 0 -55 0 -55 -45 c 0 -31 24 -46 46 -46 c 16 0 46 9 46 48 c 0 60 -44 108 -127 108 c -128 0 -263 -129 -263 -350 c 0 -267 116 -338 209 -338 c 111 0 206 94 206 226 c 0 127 -89 223 -200 223 c -68 0 -105 -51 -125 -99 z M 132 328 m 119 -322 c -63 0 -93 60 -99 75 c -18 47 -18 127 -18 145 c 0 78 32 178 122 178 c 16 0 62 0 93 -62 c 18 -37 18 -88 18 -137 c 0 -48 0 -98 -17 -134 c -30 -60 -76 -65 -99 -65 z"/>
 <!-- 7: horiz-adv-x="500"-->
 <path id="seven" d="M 56 0 m 420 609 c 9 12 9 14 9 35 h -243 c -122 0 -124 13 -128 32 h -25 l -33 -206 h 25 c 3 16 12 79 25 91 c 7 6 85 6 98 6 h 207 c -11 -16 -90 -125 -112 -158 c -90 -135 -123 -274 -123 -376 c 0 -10 0 -55 46 -55 c 46 0 46 45 46 55 v 51 c 0 55 3 110 11 164 c 4 23 18 109 62 171 z"/>
 <!-- 8: horiz-adv-x="500"-->
 <path id="eight" d="M 42 0 m 121 457 c -46 30 -50 64 -50 81 c 0 61 65 103 136 103 c 73 0 137 -52 137 -124 c 0 -57 -39 -105 -99 -140 z M 287 377 m 22 -15 c 72 37 121 89 121 155 c 0 92 -89 149 -180 149 c -100 0 -181 -74 -181 -167 c 0 -18 2 -63 44 -110 c 11 -12 48 -37 73 -54 c -58 -29 -144 -85 -144 -184 c 0 -106 102 -173 207 -173 c 113 0 208 83 208 190 c 0 36 -11 81 -49 123 c -19 21 -35 31 -99 71 z M 309 362 m -100 -42 c 28 -17 75 -47 123 -78 c 28 -19 75 -49 75 -110 c 0 -74 -75 -126 -157 -126 c -86 0 -158 62 -158 145 c 0 58 32 122 117 169 z"/>
 <!-- 9: horiz-adv-x="500"-->
 <path id="nine" d="M 42 0 m 325 318 v -32 c 0 -234 -104 -280 -162 -280 c -17 0 -71 2 -98 36 c 44 0 52 29 52 46 c 0 31 -24 46 -46 46 c -16 0 -46 -9 -46 -48 c 0 -67 54 -108 139 -108 c 129 0 251 136 251 351 c 0 269 -115 337 -204 337 c -55 0 -104 -18 -147 -63 c -41 -45 -64 -87 -64 -162 c 0 -125 88 -223 200 -223 c 61 0 102 42 125 100 z M 367 318 m -124 -77 c -16 0 -62 0 -93 63 c -18 37 -18 87 -18 136 c 0 54 0 101 21 138 c 27 50 65 63 100 63 c 46 0 79 -34 96 -79 c 12 -32 16 -95 16 -141 c 0 -83 -34 -180 -122 -180 z"/>
 <!-- .: horiz-adv-x="277.8"-->
 <path id="dot" d="M 192 378 m 0 -325 c 0 29 -24 53 -53 53 c -29 0 -53 -24 -53 -53 c 0 -29 24 -53 53 -53 c 29 0 53 24 53 53 z"/>
  </defs>



  <rect id="background" x="0" y="0" width="600" height="400" fill="none"/>

  <g transform="translate(61.5, 362.5)">
 <!-- grid -->
 <g id="grid" transform="scale(1,-1)" style="stroke:black; opacity:0.4; stroke-width:0.5; stroke-linecap:butt">
 <path id="gridx" d="M   60,0 V 300.5 M  120,0 V 300.5 M  180,0 V 300.5 M  240,0 V 300.5 M  300,0 V 300.5 M  360,0 V 300.5 M  420,0 V 300.5 M  480,0 V 300.5"/>
 <path id="gridy" d="M 0, 60 H 480 M 0,120 H 480 M 0,180 H 480 M 0,240 H 480 M 0,300 H 480"/>
 </g>

 <!-- ticks -->
 <g id="ticks" transform="scale(1,-1)" style="stroke:black; stroke-width:1; stroke-linecap:square">
 <path id="ticksx" d="M 0,-5 V 5 M   60,-5 V 5 M  120,-5 V 5 M  180,-5 V 5 M  240,-5 V 5 M  300,-5 V 5 M  360,-5 V 5 M  420,-5 V 5 M  480,-5 V 5"/>
 <path id="ticksy" d="M -5,  0 H 5 M -5, 60 H 5 M -5,120 H 5 M -5,180 H 5 M -5,240 H 5 M -5,300 H 5"/>
 </g>

 <!-- axes -->
 <line id="x-axis" x1="0." x2="510.5" y1="0" y2="0" stroke="black" stroke-width="2" stroke-linecap="butt" marker-end="url(#Arrow)"/>
 <line id="y-axis" x1="0" x2="0" y1="0" y2="-330.5" stroke="black" stroke-width="2" stroke-linecap="butt" marker-end="url(#Arrow)"/>

 <!-- labels -->
 <g id="chik">
 <g id="chil" transform="translate(248,-332) scale(0.025,-0.025)">
  <use xlink:href="#chi" x="-625.7" y="0"/>
 </g>
 <g id="kchi" transform="translate(248,-332) scale(0.0173,-0.0173)">
  <use xlink:href="#k" x="0" y="-400"/>
 </g>
 <g id="chi2" transform="translate(248,-332) scale(0.0173,-0.0173)">
  <use xlink:href="#two" x="0" y="600"/>
 </g>
 </g>
 <g id="xl" transform="translate(521,18) scale(0.025,-0.025)">
 <use xlink:href="#x" x="-285.75" y="0"/>
 </g>
 <g id="Fkx">
 <g id="Fx" transform="translate(-3,-340) scale(0.025,-0.025)">
  <use xlink:href="#F" x="-2309.6" y="0"/>
  <use xlink:href="#parleft" x="-1305.6" y="0"/>
  <use xlink:href="#x" x="-916.7" y="0"/>
  <use xlink:href="#parright" x="-388.9" y="0"/>
 </g>
 <g id="kF" transform="translate(-3,-340) scale(0.0173,-0.0173)">
  <use xlink:href="#k" x="-2404.3" y="-200"/>
 </g>
 </g>
 <g id="xlabels" transform="translate(0,29)">
 <g id="x0" transform="translate(0,0) scale(0.025,-0.025)">
  <use xlink:href="#zero" x="-250" y="0"/>
 </g>
 <g id="x1" transform="translate(60,0) scale(0.025,-0.025)">
  <use xlink:href="#one" x="-250" y="0"/>
 </g>
 <g id="x2" transform="translate(120,0) scale(0.025,-0.025)">
  <use xlink:href="#two" x="-250" y="0"/>
 </g>
 <g id="x3" transform="translate(180,0) scale(0.025,-0.025)">
  <use xlink:href="#three" x="-250" y="0"/>
 </g>
 <g id="x4" transform="translate(240,0) scale(0.025,-0.025)">
  <use xlink:href="#four" x="-250" y="0"/>
 </g>
 <g id="x5" transform="translate(300,0) scale(0.025,-0.025)">
  <use xlink:href="#five" x="-250" y="0"/>
 </g>
 <g id="x6" transform="translate(360,0) scale(0.025,-0.025)">
  <use xlink:href="#six" x="-250" y="0"/>
 </g>
 <g id="x7" transform="translate(420,0) scale(0.025,-0.025)">
  <use xlink:href="#seven" x="-250" y="0"/>
 </g>
 <g id="x8" transform="translate(480,0) scale(0.025,-0.025)">
  <use xlink:href="#eight" x="-250" y="0"/>
 </g>
 </g>
 <g id="ylabels" transform="translate(-11,8)">
 <g id="y00" transform="translate(0,0) scale(0.025,-0.025)">
  <use xlink:href="#zero" x="-1277.8" y="0"/>
  <use xlink:href="#dot" x="-777.8" y="0"/>
  <use xlink:href="#zero" x="-500" y="0"/>
 </g>
 <g id="y02" transform="translate(0,-60) scale(0.025,-0.025)">
  <use xlink:href="#zero" x="-1277.8" y="0"/>
  <use xlink:href="#dot" x="-777.8" y="0"/>
  <use xlink:href="#two" x="-500" y="0"/>
 </g>
 <g id="y04" transform="translate(0,-120) scale(0.025,-0.025)">
  <use xlink:href="#zero" x="-1277.8" y="0"/>
  <use xlink:href="#dot" x="-777.8" y="0"/>
  <use xlink:href="#four" x="-500" y="0"/>
 </g>
 <g id="y06" transform="translate(0,-180) scale(0.025,-0.025)">
  <use xlink:href="#zero" x="-1277.8" y="0"/>
  <use xlink:href="#dot" x="-777.8" y="0"/>
  <use xlink:href="#six" x="-500" y="0"/>
 </g>
 <g id="y08" transform="translate(0,-240) scale(0.025,-0.025)">
  <use xlink:href="#zero" x="-1277.8" y="0"/>
  <use xlink:href="#dot" x="-777.8" y="0"/>
  <use xlink:href="#eight" x="-500" y="0"/>
 </g>
 <g id="y10" transform="translate(0,-300) scale(0.025,-0.025)">
  <use xlink:href="#one" x="-1277.8" y="0"/>
  <use xlink:href="#dot" x="-777.8" y="0"/>
  <use xlink:href="#zero" x="-500" y="0"/>
 </g>
 </g>

 <!-- the controll points lie on the tangents of the function.
   they are furthermore positioned in a way to minimize the average
   quadratic distance between the bezier-curve and the function. -->
   
 <!-- chi-square distribution curve -->
 <g transform="scale(60, -60)">
 <path id="curve-1" fill="none" stroke="#cccc00" stroke-width="0.05px" stroke-linecap="butt" d="M 0.00000,0.00000 C 0.00000,0.69951 0.09236,1.44138 0.30827,2.10627 C 0.48352,2.64596 0.70391,3.02396 0.90274,3.28976 C 1.26413,3.77287 1.71232,4.09619 2.22823,4.32245 C 2.84379,4.59243 3.60266,4.74480 4.55820,4.83619 C 5.43249,4.91982 6.52495,4.95756 8.00000,4.97661"/>
 <path id="curve-2" fill="none" stroke="#00dd00" stroke-width="0.05px" stroke-linecap="butt" d="M 0.00000,0.00000 C 0.66088,1.65219 1.41027,2.70694 2.28409,3.40417 C 3.01510,3.98746 3.85544,4.33829 4.85611,4.55896 C 5.71844,4.74912 6.73560,4.85053 8.00000,4.90842"/>
 <path id="curve-3" fill="none" stroke="#00cccc" stroke-width="0.05px" stroke-linecap="butt" d="M 0.00000,0.00000 C 0.00039,0.00000 0.02157,0.00011 0.06577,0.02199 C 0.13607,0.05679 0.21204,0.12022 0.26168,0.16467 C 0.44697,0.33055 0.66992,0.59497 0.91900,0.89580 C 1.28832,1.34184 1.72102,1.87512 2.24855,2.38775 C 2.81740,2.94054 3.43607,3.41058 4.17436,3.78379 C 5.25233,4.32871 6.47631,4.61249 8.00000,4.76994"/>
 <path id="curve-4" fill="none" stroke="#0000ff" stroke-width="0.05px" stroke-linecap="butt" d="M 0.00000,0.00000 C 0.42114,0.00000 0.88857,0.33244 1.42256,0.79868 C 1.89673,1.21269 2.42571,1.73419 3.04568,2.24895 C 3.61287,2.71989 4.22851,3.16215 4.95182,3.53862 C 5.87028,4.01665 6.85391,4.33219 8.00000,4.54211"/>
 <!-- <path id="curve-5" fill="none" stroke="#000000"
   stroke-width="0.05px" stroke-linecap="butt"
   d="M 0.00000,0.00000
 C 0.09407,0.00000 0.22013,0.00084 0.36913,0.01931
 C 0.62912,0.05155 0.90620,0.13086 1.23455,0.29240
 C 1.79237,0.56683 2.37356,1.01718 3.02976,1.52301
 C 3.68012,2.02434 4.39005,2.56900 5.23051,3.05800
 C 6.07454,3.54906 6.96246,3.93292 8.00000,4.21882" />-->
 <path id="curve-6" fill="none" stroke="#aa00aa" stroke-width="0.05px" stroke-linecap="butt" d="M 0.00000,0.00000 C 0.27785,0.00000 0.58059,0.00006 0.92982,0.05933 C 1.26227,0.11576 1.60114,0.21980 1.98104,0.39283 C 2.48711,0.62333 2.99909,0.94575 3.54987,1.31339 C 4.20194,1.74862 4.89839,2.24040 5.68985,2.70593 C 6.39628,3.12144 7.14459,3.49614 8.00000,3.80948"/>
 <!-- <path id="curve-7" fill="none" stroke="#000000"
   stroke-width="0.05px" stroke-linecap="butt"
   d="M 0.00000,0.00000
 C 0.23947,0.00000 0.44397,-0.00019 0.64945,0.00653
 C 1.02199,0.01870 1.40460,0.05400 1.83134,0.15709
 C 2.28297,0.26618 2.72770,0.43764 3.20850,0.67466
 C 3.97000,1.05006 4.74882,1.55381 5.61336,2.07226
 C 6.34119,2.50873 7.11614,2.94734 8.00000,3.33703" />-->
 <!-- <path id="curve-8" fill="none" stroke="#000000"
   stroke-width="0.05px" stroke-linecap="butt"
   d="M 0.00000,0.00000
 C 0.28449,0.00000 0.48369,-0.00010 0.67310,0.00204
 C 1.11336,0.00704 1.54213,0.02490 1.99796,0.09463
 C 2.46863,0.16663 2.93537,0.28900 3.44611,0.48334
 C 4.07474,0.72255 4.69659,1.04282 5.35484,1.40468
 C 6.17299,1.85444 7.03211,2.35992 8.00000,2.83265" />-->
 <path id="curve-9" fill="none" stroke="#ff0000" stroke-width="0.05px" stroke-linecap="butt" d="M 0.00000,0.00000 C 0.44648,-0.00000 0.71567,-0.00017 0.96693,0.00245 C 1.61353,0.00918 2.22202,0.03573 2.87881,0.15547 C 3.51747,0.27190 4.13124,0.46379 4.80065,0.74336 C 5.82505,1.17118 6.85228,1.75096 8.00000,2.32927"/>
 <!-- <path id="curve-10" fill="none" stroke="#000000"
   stroke-width="0.05px" stroke-linecap="butt"
   d="M 0.00000,0.00000
 C 0.58419,0.00000 0.88886,-0.00014 1.16867,0.00175
 C 1.84698,0.00634 2.46301,0.02399 3.09782,0.10486
 C 3.78740,0.19271 4.45162,0.34937 5.18462,0.60746
 C 6.11333,0.93444 7.02260,1.37844 8.00000,1.85582" />-->
 </g>
 
 <g id="legend" transform="translate(397,-214)">
 <rect id="legend_background" x="0.5" y="0.5" width="120" height="190" fill="white" opacity="0.8"/>
 <g id="legend_lines" transform="translate(46.5,20)">
   <path id="curvel-1" transform="translate(0,0)" fill="none" stroke="#cccc00" stroke-width="3px" stroke-linecap="butt" d="M 0,0 H -30"/>
   <path id="curvel-2" transform="translate(0,30)" fill="none" stroke="#00dd00" stroke-width="3px" stroke-linecap="butt" d="M 0,0 H -30"/>
   <path id="curvel-3" transform="translate(0,60)" fill="none" stroke="#00cccc" stroke-width="3px" stroke-linecap="butt" d="M 0,0 H -30"/>
   <path id="curvel-4" transform="translate(0,90)" fill="none" stroke="#0000ff" stroke-width="3px" stroke-linecap="butt" d="M 0,0 H -30"/>
   <path id="curvel-6" transform="translate(0,120)" fill="none" stroke="#aa00aa" stroke-width="3px" stroke-linecap="butt" d="M 0,0 H -30"/>
   <path id="curvel-9" transform="translate(0,150)" fill="none" stroke="#ff0000" stroke-width="3px" stroke-linecap="butt" d="M 0,0 H -30"/>
 </g>
 <g id="legend_labels" transform="translate(59,26)">
  <g id="k_is_1" transform="translate(0,0) scale(0.025,-0.025)">
 <use xlink:href="#k" x="0" y="0"/>
 <use xlink:href="#equal" x="581.7" y="0"/>
 <use xlink:href="#one" x="1420.6" y="0"/>
  </g>
  <g id="k_is_2" transform="translate(0,30) scale(0.025,-0.025)">
 <use xlink:href="#k" x="0" y="0"/>
 <use xlink:href="#equal" x="581.7" y="0"/>
 <use xlink:href="#two" x="1420.6" y="0"/>
  </g>
  <g id="k_is_3" transform="translate(0,60) scale(0.025,-0.025)">
 <use xlink:href="#k" x="0" y="0"/>
 <use xlink:href="#equal" x="581.7" y="0"/>
 <use xlink:href="#three" x="1420.6" y="0"/>
  </g>
  <g id="k_is_4" transform="translate(0,90) scale(0.025,-0.025)">
 <use xlink:href="#k" x="0" y="0"/>
 <use xlink:href="#equal" x="581.7" y="0"/>
 <use xlink:href="#four" x="1420.6" y="0"/>
  </g>
  <g id="k_is_6" transform="translate(0,120) scale(0.025,-0.025)">
 <use xlink:href="#k" x="0" y="0"/>
 <use xlink:href="#equal" x="581.7" y="0"/>
 <use xlink:href="#six" x="1420.6" y="0"/>
  </g>
  <g id="k_is_9" transform="translate(0,150) scale(0.025,-0.025)">
 <use xlink:href="#k" x="0" y="0"/>
 <use xlink:href="#equal" x="581.7" y="0"/>
 <use xlink:href="#nine" x="1420.6" y="0"/>
  </g>
 </g>
 </g>
</g>
</svg>